# xmcd
#
# Track frame offsets: 
#        150
#        13455
#        30468
#        43946
#        61636
#        82409
#        97948
#        114110
#        129665
#
# Disc length: 2021 seconds
#
# Revision: 0
# Processed by: cddbd v1.4PL0 Copyright (c) Steve Scherf et al.
# Submitted via: ExactAudioCopy v0.90b4
#
DISCID=7007e309
DTITLE=Soul Radio - Bad Visitors
DYEAR=1998
DGENRE=
TTITLE0=Bad Visitors
TTITLE1=Something
TTITLE2=Sex
TTITLE3=Don't
TTITLE4=Olivia
TTITLE5=Going nowhere
TTITLE6=No sleep tonight
TTITLE7=Exit
TTITLE8=If I ever loose (my shuffle)
EXTD=
EXTT0=
EXTT1=
EXTT2=
EXTT3=
EXTT4=
EXTT5=
EXTT6=
EXTT7=
EXTT8=
PLAYORDER=
